# Rhino

mtllib bridge_obj.mtl
usemtl diffuse_0
v -12.344301223754883 -7.4771332740783691 -1.4541715383529663
v -12.344301223754883 7.4771332740783691 -1.4541715383529663
v -2.3266744613647461 -7.4771332740783691 -1.4541715383529663
v -2.3266744613647461 7.4771332740783691 -1.4541715383529663
v -2.3266744613647461 -7.4771332740783691 -1.4541715383529663
v -2.3266744613647461 7.4771332740783691 -1.4541715383529663
v -2.3266744613647461 -7.4771332740783691 -7.2062277793884277
v -2.3266744613647461 7.4771332740783691 -7.2062277793884277
v -2.3266744613647461 -7.4771332740783691 -7.2062277793884277
v -2.3266744613647461 7.4771332740783691 -7.2062277793884277
v -12.344301223754883 -7.4771332740783691 -7.2062277793884277
v -12.344301223754883 7.4771332740783691 -7.2062277793884277
v -12.344301223754883 -7.4771332740783691 -7.2062277793884277
v -12.344301223754883 7.4771332740783691 -7.2062277793884277
v -12.344301223754883 -7.4771332740783691 -1.4541715383529663
v -12.344301223754883 7.4771332740783691 -1.4541715383529663
v -12.344301223754883 -7.4771332740783691 -1.4541715383529663
v -2.3266744613647461 -7.4771332740783691 -1.4541715383529663
v -2.3266744613647461 -7.4771332740783691 -7.2062277793884277
v -12.344301223754883 -7.4771332740783691 -7.2062277793884277
v -12.344301223754883 7.4771332740783691 -1.4541715383529663
v -2.3266744613647461 7.4771332740783691 -1.4541715383529663
v -2.3266744613647461 7.4771332740783691 -7.2062277793884277
v -12.344301223754883 7.4771332740783691 -7.2062277793884277
vt 0 0
vt 0 0.78259921073913574
vt 0.31762295961380005 0
vt 0.31762295961380005 0.78259921073913574
vt 0.31762295961380005 0
vt 0.31762295961380005 0.78259921073913574
vt 0.5 0
vt 0.5 0.78259921073913574
vt 0.5 0
vt 0.5 0.78259921073913574
vt 0.81762295961380005 0
vt 0.81762295961380005 0.78259921073913574
vt 0.81762295961380005 0
vt 0.81762295961380005 0.78259921073913574
vt 1 0
vt 1 0.78259921073913574
vt 0 1
vt 0.31762295961380005 1
vt 0.31762295961380005 0.78259998559951782
vt 0 0.78259998559951782
vt 0.68237704038619995 0.78259998559951782
vt 1 0.78259998559951782
vt 1 1
vt 0.68237704038619995 1
vn 0 0 1
vn 0 0 1
vn 0 0 1
vn 0 0 1
vn 1 0 0
vn 1 0 0
vn 1 0 0
vn 1 0 0
vn 0 0 -1
vn 0 0 -1
vn 0 0 -1
vn 0 0 -1
vn -1 0 0
vn -1 0 0
vn -1 0 0
vn -1 0 0
vn 0 -1 0
vn 0 -1 0
vn 0 -1 0
vn 0 -1 0
vn 0 1 0
vn 0 1 0
vn 0 1 0
vn 0 1 0
f 1/1/1 3/3/3 4/4/4 2/2/2
f 5/5/5 7/7/7 8/8/8 6/6/6
f 9/9/9 11/11/11 12/12/12 10/10/10
f 13/13/13 15/15/15 16/16/16 14/14/14
f 18/18/18 17/17/17 20/20/20
f 20/20/20 19/19/19 18/18/18
f 22/22/22 24/24/24 21/21/21
f 24/24/24 22/22/22 23/23/23
usemtl diffuse_0
v -12.344300822561699 0 -1.4541715628672169
v -2.3266745005875435 0 -1.4541715628672169
v -2.3266745005875435 0 -7.2062279670975355
v -12.344300822561699 0 -7.2062279670975355
cstype bspline
deg 1
curv 0 31.539365452408944 25 26 27 28 25
parm u 0 0 10.017626321974156 15.769682726204474 25.787309048178628 31.539365452408944 31.539365452408944
end
